<?xml version="1.0" encoding="UTF-8" standalone="no"?>
<svg
   xmlns:dc="http://purl.org/dc/elements/1.1/"
   xmlns:cc="http://creativecommons.org/ns#"
   xmlns:rdf="http://www.w3.org/1999/02/22-rdf-syntax-ns#"
   xmlns:svg="http://www.w3.org/2000/svg"
   xmlns="http://www.w3.org/2000/svg"
   xmlns:xlink="http://www.w3.org/1999/xlink"
   xmlns:sodipodi="http://sodipodi.sourceforge.net/DTD/sodipodi-0.dtd"
   xmlns:inkscape="http://www.inkscape.org/namespaces/inkscape"
   id="svg4095"
   version="1.0"
   viewBox="0 0 1280 720"
   inkscape:version="0.92.1 r15371"
   sodipodi:docname="artwork.svg">
  <sodipodi:namedview
     pagecolor="#ffffff"
     bordercolor="#666666"
     borderopacity="1"
     objecttolerance="10"
     gridtolerance="10"
     guidetolerance="10"
     inkscape:pageopacity="0"
     inkscape:pageshadow="2"
     inkscape:window-width="2880"
     inkscape:window-height="1503"
     id="namedview4992"
     showgrid="false"
     inkscape:zoom="1.3111111"
     inkscape:cx="175.0223"
     inkscape:cy="-157.79973"
     inkscape:window-x="-13"
     inkscape:window-y="527"
     inkscape:window-maximized="1"
     inkscape:current-layer="originals" />
  <defs
     id="defs2474">
    <linearGradient
       id="linearGradient2569"
       y2="406.79"
       gradientUnits="userSpaceOnUse"
       x2="311.9"
       gradientTransform="translate(129.81455,55.291381)"
       y1="329.96"
       x1="239.53">
      <stop
         id="stop3253"
         stop-color="#f2f2f2"
         offset="0" />
      <stop
         id="stop3255"
         stop-color="#c5c6c3"
         offset="1" />
    </linearGradient>
    <linearGradient
       id="linearGradient3795"
       y2="992"
       gradientUnits="userSpaceOnUse"
       x2="528"
       y1="944"
       x1="320">
      <stop
         id="stop3618"
         stop-color="#000"
         stop-opacity="0.58823532"
         offset="0" />
      <stop
         id="stop3784"
         stop-color="#000"
         stop-opacity="0.58823532"
         offset="0.78868" />
      <stop
         id="stop3782"
         stop-color="#000"
         stop-opacity="0.39215687"
         offset="0.89491" />
      <stop
         id="stop3620"
         stop-color="#000"
         stop-opacity="0"
         offset="1" />
    </linearGradient>
    <linearGradient
       id="linearGradient3797"
       y2="992"
       gradientUnits="userSpaceOnUse"
       x2="528"
       y1="944"
       x1="320">
      <stop
         id="stop3801"
         stop-color="#000"
         stop-opacity="0.58823532"
         offset="0" />
      <stop
         id="stop3803"
         stop-color="#000"
         stop-opacity="0.58823532"
         offset="0.80703" />
      <stop
         id="stop3805"
         stop-color="#000"
         stop-opacity="0.39215687"
         offset="0.8943" />
      <stop
         id="stop3807"
         stop-color="#000"
         stop-opacity="0"
         offset="1" />
    </linearGradient>
    <linearGradient
       inkscape:collect="always"
       xlink:href="#radialGradient3045"
       id="linearGradient4166"
       x1="2128"
       y1="-15.850006"
       x2="2488"
       y2="-15.850006"
       gradientUnits="userSpaceOnUse"
       gradientTransform="matrix(0.71111111,0,0,0.00361925,-1353.2444,609.5573)" />
    <radialGradient
       id="radialGradient3045"
       gradientUnits="userSpaceOnUse"
       cy="9.1960001"
       cx="1180"
       gradientTransform="matrix(1.4951715,-0.00368325,0.00246343,0.99999697,-584.32495,4.3462641)"
       r="181">
      <stop
         id="stop17"
         stop-color="#000"
         stop-opacity="0"
         offset="0" />
      <stop
         id="stop19"
         stop-color="#000"
         stop-opacity="0"
         offset="0.4423953" />
      <stop
         id="stop23"
         stop-color="#000"
         stop-opacity="0.27450982"
         offset="1"
         style="stop-color:#000000;stop-opacity:0.07843138" />
    </radialGradient>
  </defs>
  <metadata
     id="metadata10">
    <rdf:RDF>
      <cc:Work
         rdf:about="">
        <dc:format>image/svg+xml</dc:format>
        <dc:type
           rdf:resource="http://purl.org/dc/dcmitype/StillImage" />
        <dc:title />
      </cc:Work>
    </rdf:RDF>
  </metadata>
  <g
     id="originals">
    <rect
       id="vignettegradient"
       height="1"
       width="256"
       y="609"
       x="160"
       style="fill:url(#linearGradient4166);fill-opacity:1" />
    <g
       id="qtlogo"
       fill-rule="nonzero"
       transform="translate(-173.36079,172.8512)">
      <g
         id="g7213"
         transform="matrix(5.3333333,0,0,5.3333333,175.13559,-4424.9499)">
        <path
           inkscape:connector-curvature="0"
           id="path3809"
           style="fill:#7ec242;fill-opacity:1;fill-rule:nonzero;stroke:none"
           d="M 2.1536737,936.15961 C 0.984954,935.96692 0,936.82929 0,938.08492 l 0,13.80599 10.697724,-1.80033 C 11.435147,949.96263 12,949.09324 12,948.15458 l 0,-10.37845 z"
           sodipodi:nodetypes="csccscc" />
        <path
           inkscape:connector-curvature="0"
           id="path3825"
           style="fill:#ffffff;fill-opacity:1;fill-rule:nonzero;stroke:none"
           d="m 5.0072488,946.79983 c -0.015766,10e-4 -0.031029,0.002 -0.046394,0.002 -0.347749,0 -0.6126026,-0.24831 -0.7894394,-0.74949 -0.1875816,-0.52617 -0.2807197,-1.42237 -0.2807197,-2.68548 0,-1.30713 0.09585,-2.17056 0.2850879,-2.58716 0.1748787,-0.38227 0.425774,-0.5726 0.7520335,-0.5726 0.025807,0 0.052469,10e-4 0.079431,0.004 0.3521674,0.0309 0.6148619,0.27546 0.7904435,0.72805 0.1755314,0.45044 0.2618912,1.27125 0.2618912,2.46489 0,1.32962 -0.087213,2.22095 -0.2639498,2.6753 -0.1779414,0.45871 -0.4401841,0.69934 -0.7883849,0.72132 z m 0,-7.7315 c -0.1301423,-0.0152 -0.2565691,-0.0228 -0.3787281,-0.0228 -0.7635315,0 -1.3702595,0.298 -1.8052219,0.90418 -0.5152971,0.71826 -0.7773389,1.85092 -0.7773389,3.38573 0,1.42323 0.1914477,2.51162 0.5675147,3.25548 0.3705942,0.73232 0.9058243,1.1686 1.5922846,1.31491 0.1494226,0.72409 0.3825439,1.21362 0.6985607,1.46735 0.2387448,0.19213 0.5562176,0.28735 0.9485021,0.28735 0.1184937,0 0.2444185,-0.009 0.3764686,-0.0258 l 0.4485189,-0.0587 0,-0.98595 c -0.1355377,0.002 -0.2397967,0.009 -0.3574896,-0.002 -0.1176929,-0.0108 -0.232569,-0.0586 -0.3058243,-0.12423 -0.1309455,-0.11861 -0.2296066,-0.34287 -0.2946778,-0.67711 0.6456402,-0.22085 1.1174561,-0.69793 1.4266445,-1.42709 0.3038158,-0.71897 0.4542929,-1.69282 0.4542929,-2.93113 0,-1.3518 -0.2043012,-2.38107 -0.620385,-3.09928 -0.4237657,-0.73407 -1.0749289,-1.15775 -1.9731214,-1.2612"
           sodipodi:nodetypes="cscscsccscccscscccsccczcccscc" />
        <path
           inkscape:connector-curvature="0"
           id="path3817"
           style="fill:#ffffff;fill-opacity:1;fill-rule:nonzero;stroke:none"
           d="m 9.991386,946.35405 c -0.125222,0 -0.204452,-0.0395 -0.264803,-0.11961 -0.06708,-0.0875 -0.08641,-0.28229 -0.08641,-0.58505 l 0,-3.48029 0.903766,0.0447 0,-0.95217 -0.903766,-0.069 0,-1.51794 -0.879464,-0.0931 -0.358343,1.52517 -0.5697233,-0.0409 0,1.02043 0.4016733,0.0212 0,3.8578 c 0,0.50494 0.127983,0.87301 0.332937,1.10214 0.175833,0.19776 0.446059,0.29543 0.782762,0.29543 0.05031,0 0.103129,-0.002 0.157054,-0.007 0.371799,-0.0316 0.735615,-0.13236 1.137289,-0.30176 l 0,-0.87502 c -0.200837,0.1033 -0.429791,0.16217 -0.62144,0.17332 -0.01255,8e-4 -0.01953,10e-4 -0.03153,10e-4" />
      </g>
    </g>
    <g
       id="qtorialslogo"
       transform="translate(-277.65662,-2.59033)">
      <use
         id="qtorialsqtlogo"
         xlink:href="#qtlogo"
         transform="translate(277.65625,98.5625)"
         height="720"
         width="1280"
         y="0"
         x="0" />
      <path
         id="path3056"
         fill="#000"
         d="M341.58,905.55c-2.02,0.12-3.63-1.28-4.59-2.94-1.11-1.79-1.28-3.98-0.73-6,0.42-2.02,1.85-3.54,3.04-5.15,1.35-1.26,3.37-2.15,5.09-1.13,0.97,0.99,1.96,2.69,3.36,1.07,1.38-1.23,3.9-0.91,4.29,1.07,0.72,2.18,0.85,4.47,1.23,6.72,0.42-1.98,0.53-4.07,0.57-6.11-1.26-1.29,0.95-3.38,1.34-1.08,0.54,1.47,2.78,2.9,3.85,0.97,0.69-0.39,0.81-2.9,1.8-1.48,0.21,2.1-0.02,4.28,0.5,6.33,1.02,2.56,2.48-1.74,2.22-3,0.33-1.68,0.52-3.87,1.89-4.96,4.22-1.41,1.94,6.28,2.33,8.36,1.12,2.63,2.99-1.25,3.49-2.52,0.41-2.03-0.14-4.17,0.15-6.24,0.09-2.34,0.39-4.66,0.96-6.93,0.3-1.28,0.51-4.31,2.26-3.85,0.73,2.08,0.46,4.37,0.49,6.55-0.02,2.1-0.49,4.17-1.04,6.19-0.35,1.77-2.03,3.58-1.07,5.39,0.44,1.64,2.64,2.45,3.43,0.69,1.42-2.53,2.07-5.59,1.53-8.47,1.2-0.85,2.05,2.28,2.92,3.1,0.82,1.33,1.93,2.65,2.12,4.22-0.36,1.27-0.81,2.73-2.12,3.31-0.95,1.05-2.51-0.19-2.47-1.51-0.28-1.45,1.55,1.86,2.43,0.19,0.83-0.6,1.64-2.05,0.96-3.02-0.86-1.37-1.84-2.7-2.83-3.95-0.35,1.94-0.46,4.04-1.37,5.87-0.19,1.7-2.2,3.84-3.91,2.4-1.07-0.18-1.6-3.44-2.26-1.33-0.84,1.08-2.4,3.75-3.94,1.96-0.71-0.86-0.98-1.98-0.98-1.98-0.35,0.5-1.92,0.64-2.53-0.05,0.4,0.37-2.42,3.23-3.59,0.31-0.78-0.93-0.16-4.64-1.95-2.77-1.46,0.95-3.52-2.22-3.49,0.62-0.55,2.09-0.5,4.33-1.37,6.32-1.66,0.6-1.13-2.74-1.57-3.9-0.19-1.91-0.49-3.78-1.06-5.6-0.77-2.17-2.73,0.34-3.8,0.84-0.38,1.83-0.11,3.83-0.83,5.63-0.57,1.61-0.98,3.36-2.34,4.51-0.61,0.54-1.47,1.48-2.41,1.35m1.06-2.19c1.61-1.18,2.41-3.07,2.96-4.92,0.18-0.99,0.76-2.86,0.26-3.51-1.33,0.01-2.84-0.16-3.8-1.17-0.81-0.99-2.06-2-2.72-0.21-1.3,1.3-2.04,3.05-2.06,4.91-0.08,1.57,0.42,3.47,1.53,4.48,0.87,1.19,2.69,1.34,3.83,0.42m22.8-6.47c1.39-0.93,1.49-3.55,0.95-5.08-0.75-1.47-1.86,2.45-1.72,3.49-0.13,0.42,0.07,2.35,0.77,1.59m7.29-4.63c1.2-3.03,1.84-6.3,1.63-9.57,0.19-1.09-0.36-3.38-0.99-1.18-0.46,2.04-0.88,4.13-1.05,6.23-0.23,1.73-0.14,3.47-0.19,5.2,0.41,0.09,0.48-0.41,0.6-0.68m-27.69,0.35c-0.26-1.05-3.12-1.81-2-0.14,0.19,0.31,2.72,0.93,2,0.14m16.12-11.38c-1.52-1.23,0.96-2.89,1.51-1.02-0.05,0.76-0.74,1.45-1.51,1.02z" />
    </g>
    <g
       id="qtcreatorlogo"
       transform="matrix(0.1896468,0,0,0.1896468,203.83761,941.55789)">
      <g
         id="qtcreatorqtlogo"
         fill-rule="nonzero">
        <path
           id="path2636"
           d="M-990.59,13.575c-4.19-0.692-8.3-0.857-12.31-0.549v-0.002s-27.1,1.845-28.3,1.945c-24.8,1.981-43.6,22.351-43.6,50.482v331.73l27.7,25.86,56.51-409.46z"
           fill="#006325" />
        <path
           id="path2638"
           fill="#80c341"
           d="M-733.93,309.95v-254.3l-256.66-42.076c-30.41-5.013-56.51,17.432-56.51,50.114v359.35l211.73-35.58c13.47-38.3,52.17-52.98,101.44-77.51z" />
        <path
           id="path2640"
           fill="#FFF"
           d="M-819.83,102.65l22.51,2.42v39.51l25.35,1.79v24.79l-25.35-1.16v90.58c0,7.88,0.88,12.95,2.62,15.23,1.57,2.08,4,3.11,7.26,3.11,0.31,0,0.64-0.01,0.97-0.03,4.98-0.29,10.4-1.82,16.31-4.51v22.78c-10.04,4.41-19.89,7.03-29.57,7.85-1.4,0.11-2.75,0.17-4.07,0.17-8.75,0-15.45-2.54-20.03-7.69-5.33-5.96-7.99-15.54-7.99-28.69v-100.41l-12.17-0.55v-26.56l14.83,1.07,9.33-39.7z" />
        <path
           id="path2642"
           fill="#035f17"
           d="M-771.97,171.16l-25.34-1.16v0.54l13.58,0.62h11.76z" />
        <path
           id="path2644"
           fill="#035f17"
           d="M-823.83,297.49c-5.33-5.96-7.99-15.54-7.99-28.69v-100.41l-12.17-0.55v-26.56h-11.77v5.93c1.7,6.4,3.05,13.33,4.03,20.81l8.15,0.37v100.41c0,13.15,2.67,22.73,8,28.69,4.57,5.15,11.26,7.69,20.02,7.69h11.76c-8.75,0-15.45-2.54-20.03-7.69zm4-194.84h-11.76l-9.13,38.86,11.56,0.84,9.33-39.7z" />
        <path
           id="path2646"
           fill="#035f17"
           d="M-878.76,337.42c1.58,0,3.27-0.1,5.06-0.3h-9.45c1.32,0.21,2.84,0.3,4.39,0.3z" />
        <path
           id="path2648"
           fill="#FFF"
           d="M-896.61,271.75c4.6-11.83,6.87-35.02,6.87-69.63,0-31.07-2.25-52.44-6.82-64.16-4.57-11.78-11.4-18.15-20.57-18.95-0.7-0.06-1.39-0.1-2.06-0.1-8.49,0-15.02,4.96-19.57,14.91-4.92,10.84-7.42,33.32-7.42,67.34,0,32.87,2.42,56.2,7.31,69.9,4.6,13.04,11.49,19.5,20.54,19.5,0.4,0,0.79-0.01,1.2-0.04,9.06-0.57,15.89-6.83,20.52-18.77zm35.14,7.33c-8.04,18.98-20.32,31.4-37.12,37.15,1.7,8.7,4.26,14.55,7.67,17.64,2.64,2.37,6.71,3.55,12.16,3.55,1.58,0,3.27-0.1,5.07-0.3v25.66l-11.65,1.53c-3.44,0.45-6.7,0.67-9.78,0.67-10.21,0-18.47-2.47-24.68-7.48-8.23-6.6-14.29-19.34-18.18-38.19-17.86-3.8-31.79-15.16-41.43-34.22-9.79-19.37-14.77-47.69-14.77-84.74,0-39.95,6.82-69.43,20.23-88.12,11.31-15.779,27.1-23.539,46.97-23.539,3.18,0,6.47,0.199,9.85,0.595,23.37,2.694,40.32,13.724,51.34,32.834,10.83,18.69,16.15,45.48,16.15,80.67,0,32.23-3.92,57.58-11.83,76.29z" />
        <path
           id="path2650"
           d="M-908.93,137.96c4.57,11.72,6.81,33.09,6.81,64.16,0,34.61-2.26,57.8-6.86,69.63-3.7,9.54-8.85,15.45-15.37,17.74,1.88,0.71,3.89,1.07,6.02,1.07,0.4,0,0.79-0.01,1.2-0.04,9.06-0.57,15.89-6.83,20.52-18.77,4.6-11.83,6.87-35.02,6.87-69.63,0-31.07-2.25-52.44-6.82-64.16-4.57-11.78-11.4-18.15-20.57-18.95-0.7-0.06-1.39-0.1-2.06-0.1-2.14,0-4.15,0.32-6.03,0.94,7.04,2.19,12.46,8.24,16.29,18.11zm-4.58,223.43c-2.26-1.02-4.34-2.37-6.29-3.89-8.23-6.6-14.29-19.34-18.18-38.19-17.86-3.8-31.79-15.16-41.43-34.22-9.79-19.37-14.77-47.69-14.77-84.74,0-39.95,6.82-69.43,20.23-88.12,11.31-15.779,27.1-23.539,46.97-23.539l-12.42-0.002v0.004c-19.84,0.013-35.61,7.772-46.92,23.537-13.41,18.69-20.18,48.17-20.18,88.12,0,37.05,4.9,65.37,14.72,84.74,9.64,19.06,23.57,30.42,41.43,34.22,3.88,18.85,9.95,31.59,18.17,38.19,6.22,5.01,14.48,7.48,24.69,7.48h0.58,10.83c-6.66-0.11-12.48-1.29-17.41-3.58l-0.02-0.01z"
           fill="#035f17" />
      </g>
      <g
         id="qtcreatorlogoleaf"
         transform="matrix(1.3400123,0,0,1.3400123,-1243.4346,-188.55846)">
        <path
           id="path2653"
           d="M0,2.697c0.965,0.475,2.086,0.692,3.434,0.692,0.234,0,0.477-0.006,0.721-0.022,3.722-0.216,7.767-1.36,12.176-3.367h-8.777c-2.658,1.211-5.153,2.126-7.554,2.697z"
           fill-rule="nonzero"
           transform="translate(336.858,345.474)"
           fill="#035f17" />
        <path
           id="path2655"
           d="M-3.7748E-14,196.52c63.517-23.51,44.182-65.95,69.967-149.81,6.919-6.624,37.603-38.47,44.413-46.71-38.508,101.34-38.59,174.24-114.38,196.52"
           fill-rule="nonzero"
           transform="translate(382.65,310.932)"
           fill="#d8d9da" />
        <path
           id="path3241"
           d="M485.19,302.88c-40.77,109.49-24.08,214.55-166.14,212.48-47.94-151,66.69-96.16,166.14-212.48z"
           fill-rule="nonzero"
           fill="url(#linearGradient2569)" />
        <path
           id="path2658"
           d="M212.94,9.747c-38.79,43.65-78.34,62.901-110.48,78.552-25.717,12.521-46.039,22.401-56.272,40.441-10.836,19.1-9.81,46.72,3.339,89.41,0.801,0.01,1.593,0.01,2.394,0.01,121.81-5.39,113.48-56.16,161.02-208.41zm5.72-9.747c-46.7,122.89-29.7,220.17-166.74,220.17-1.287,0-2.556-0.01-3.87-0.03-48.051-154.1,67.009-94.78,170.61-220.14"
           fill-rule="nonzero"
           transform="translate(270.314,296.361)"
           fill="#83847f" />
        <path
           id="path2449"
           d="M319.77,514.55c12.08-21.44,66.35-86.5,135.18-165.96-43.71,55.13-87.83,110.83-132.71,165.96h-2.47z"
           fill-rule="evenodd"
           fill="#99aaa9" />
        <path
           id="path3221"
           d="M323.21,514.46l133.18-163.71c-6.21,101.46-38.48,166.52-133.18,163.71z"
           fill-rule="evenodd"
           fill="#e9eeee" />
        <path
           id="path3223"
           d="M318.64,510.38l145.44-178.62c-107.63,88.24-183.27,53.91-145.44,178.62z"
           fill-rule="evenodd"
           fill="#e9eeee" />
      </g>
    </g>
    <g
       id="cc-by-nc-sa"
       transform="matrix(0.9937808,0,0,0.9936696,-277.12332,677.56309)">
      <path
         id="path3817_5_"
         fill="#AAA"
         d="M443.29,75.367l114.06,0.202c1.6,0,3.02-0.236,3.02,3.181l-0.14,37.57h-119.82v-37.71c0-1.685,0.16-3.243,2.88-3.243z"
         nodetypes="ccccccc" />
      <path
         id="path120"
         d="M558.35,74.911h-116.23c-1.25,0-2.26,1.015-2.26,2.261v39.498c0,0.28,0.23,0.51,0.51,0.51h119.73c0.28,0,0.51-0.23,0.51-0.51v-39.498c0-1.246-1.01-2.261-2.26-2.261zm-116.23,1.022h116.23c0.68,0,1.24,0.556,1.24,1.239v27.398h-83.07c-3.05,5.5-8.92,9.24-15.65,9.24s-12.6-3.73-15.64-9.24h-4.35v-27.398c0-0.683,0.56-1.239,1.24-1.239z" />
      <g
         id="g5908_5_"
         transform="matrix(0.872921,0,0,0.872921,50.12536,143.2144)">
        <path
           id="path5906_5_"
           d="M486.27-55.707c0,8.681-7.03,15.722-15.71,15.727-8.68,0.006-15.72-7.027-15.73-15.708v-0.019c0-8.68,7.03-15.721,15.71-15.727,8.68-0.005,15.72,7.028,15.73,15.708v0.019z"
           rx="22.939548"
           ry="22.939548"
           cy="264.3577"
           cx="296.35416"
           type="arc"
           fill="#FFF" />
        <g
           id="g5706_5_"
           transform="translate(-289.6157,99.0653)">
          <path
             id="path5708_5_"
             d="M772.94-167.57c3.49,3.48,5.23,7.75,5.23,12.8s-1.71,9.27-5.14,12.67c-3.63,3.57-7.93,5.36-12.89,5.36-4.9,0-9.12-1.77-12.66-5.32-3.55-3.55-5.32-7.78-5.32-12.71s1.77-9.2,5.32-12.8c3.45-3.49,7.67-5.23,12.66-5.23,5.05,0,9.32,1.74,12.8,5.23zm-23.12,2.34c-2.94,2.98-4.42,6.46-4.42,10.46s1.46,7.46,4.38,10.37c2.91,2.92,6.39,4.38,10.41,4.38,4.03,0,7.53-1.47,10.51-4.42,2.83-2.74,4.24-6.18,4.24-10.33,0-4.11-1.44-7.61-4.31-10.48s-6.35-4.31-10.44-4.31c-4.08,0-7.54,1.45-10.37,4.33zm7.76,8.7c-0.45-0.98-1.13-1.47-2.03-1.47-1.58,0-2.38,1.07-2.38,3.21s0.8,3.21,2.38,3.21c1.05,0,1.8-0.52,2.25-1.57l2.21,1.18c-1.05,1.86-2.63,2.8-4.73,2.8-1.62,0-2.92-0.5-3.89-1.49-0.98-1-1.47-2.37-1.47-4.11,0-1.72,0.51-3.08,1.51-4.09,1.01-1.01,2.26-1.51,3.76-1.51,2.22,0,3.81,0.88,4.77,2.62l-2.38,1.22zm10.36,0c-0.45-0.98-1.11-1.47-1.98-1.47-1.62,0-2.43,1.07-2.43,3.21s0.81,3.21,2.43,3.21c1.05,0,1.79-0.52,2.21-1.57l2.25,1.18c-1.05,1.86-2.62,2.8-4.72,2.8-1.62,0-2.91-0.5-3.89-1.49-0.97-1-1.46-2.37-1.46-4.11,0-1.72,0.5-3.08,1.49-4.09,0.98-1.01,2.24-1.51,3.77-1.51,2.22,0,3.8,0.88,4.76,2.62l-2.43,1.22z" />
        </g>
      </g>
      <g
         id="g126">
        <circle
           id="circle128"
           cx="491.95"
           cy="90.232"
           r="10.806"
           fill="#FFF" />
        <g
           id="g130">
          <path
             id="path132"
             d="M495.07,87.105c0-0.417-0.33-0.754-0.75-0.754h-4.77c-0.42,0-0.76,0.337-0.76,0.754v4.773h1.33v5.652h3.62v-5.652h1.33v-4.773z" />
          <circle
             id="circle134"
             cx="491.93"
             cy="84.09"
             r="1.6323" />
        </g>
        <path
           id="path136"
           fill-rule="evenodd"
           clip-rule="evenodd"
           d="M491.92,78.325c-3.23,0-5.97,1.128-8.21,3.384-2.3,2.333-3.44,5.096-3.44,8.285s1.14,5.931,3.44,8.227c2.3,2.289,5.04,3.439,8.21,3.439,3.21,0,6-1.15,8.35-3.469,2.22-2.197,3.33-4.93,3.33-8.197,0-3.268-1.13-6.029-3.39-8.285-2.25-2.256-5.02-3.384-8.29-3.384zm0.03,2.1c2.65,0,4.9,0.934,6.74,2.801,1.87,1.847,2.81,4.104,2.81,6.768,0,2.683-0.92,4.91-2.75,6.68-1.92,1.906-4.19,2.859-6.8,2.859s-4.86-0.943-6.75-2.83c-1.89-1.886-2.83-4.122-2.83-6.709s0.95-4.843,2.86-6.768c1.83-1.867,4.07-2.801,6.72-2.801z" />
      </g>
      <g
         id="g138"
         enable-background="new    "
         fill="#FFF">
        <path
           id="path140"
           d="M488.56,107.87c0.32,0,0.61,0.03,0.87,0.08,0.26,0.06,0.49,0.15,0.68,0.28,0.18,0.12,0.33,0.29,0.43,0.5,0.1,0.22,0.15,0.48,0.15,0.79,0,0.33-0.07,0.61-0.22,0.84-0.16,0.22-0.38,0.4-0.68,0.55,0.41,0.12,0.72,0.32,0.92,0.62s0.31,0.65,0.31,1.07c0,0.33-0.07,0.63-0.2,0.87-0.13,0.25-0.31,0.45-0.53,0.6-0.22,0.16-0.47,0.27-0.76,0.35-0.28,0.07-0.57,0.11-0.87,0.11h-3.24v-6.66h3.14zm-0.18,2.69c0.26,0,0.47-0.06,0.64-0.18,0.17-0.13,0.25-0.33,0.25-0.61,0-0.15-0.03-0.28-0.08-0.38-0.06-0.1-0.13-0.18-0.23-0.23-0.09-0.06-0.2-0.1-0.32-0.12s-0.25-0.03-0.38-0.03h-1.37v1.55h1.49zm0.08,2.83c0.14,0,0.28-0.01,0.41-0.04s0.25-0.08,0.35-0.14c0.1-0.07,0.18-0.16,0.24-0.27s0.09-0.25,0.09-0.43c0-0.34-0.1-0.58-0.29-0.73-0.2-0.14-0.45-0.22-0.77-0.22h-1.6v1.83h1.57z" />
        <path
           id="path142"
           d="M491.27,107.87h1.65l1.56,2.63,1.55-2.63h1.63l-2.47,4.1v2.56h-1.47v-2.59l-2.45-4.07z" />
      </g>
      <g
         id="g144"
         enable-background="new    "
         fill="#FFF">
        <path
           id="path146"
           d="M538.92,112.88c0.08,0.16,0.18,0.29,0.32,0.38,0.13,0.1,0.29,0.17,0.47,0.22,0.18,0.04,0.36,0.07,0.56,0.07,0.13,0,0.27-0.01,0.42-0.04,0.14-0.02,0.28-0.06,0.41-0.12s0.24-0.15,0.33-0.26,0.13-0.25,0.13-0.41c0-0.18-0.06-0.33-0.17-0.44-0.12-0.11-0.27-0.21-0.45-0.28-0.19-0.08-0.4-0.14-0.64-0.2-0.23-0.05-0.47-0.12-0.72-0.19-0.24-0.06-0.49-0.13-0.72-0.22-0.24-0.09-0.45-0.21-0.64-0.35-0.18-0.15-0.33-0.33-0.45-0.54-0.11-0.22-0.17-0.48-0.17-0.78,0-0.34,0.07-0.64,0.22-0.89,0.14-0.25,0.34-0.46,0.57-0.63,0.24-0.17,0.51-0.29,0.8-0.38,0.3-0.08,0.6-0.12,0.9-0.12,0.35,0,0.68,0.04,1,0.12s0.61,0.2,0.85,0.38c0.25,0.17,0.45,0.4,0.6,0.67,0.14,0.27,0.22,0.6,0.22,0.98h-1.43c-0.01-0.2-0.05-0.36-0.12-0.49s-0.17-0.24-0.29-0.31c-0.11-0.08-0.25-0.13-0.4-0.16s-0.32-0.05-0.5-0.05c-0.11,0-0.23,0.02-0.35,0.04-0.12,0.03-0.22,0.07-0.32,0.13s-0.17,0.14-0.24,0.24c-0.06,0.09-0.09,0.21-0.09,0.35,0,0.13,0.03,0.24,0.08,0.32s0.14,0.15,0.29,0.22,0.35,0.14,0.6,0.21c0.26,0.07,0.6,0.15,1.02,0.26,0.12,0.02,0.29,0.07,0.51,0.13,0.22,0.07,0.44,0.17,0.66,0.32,0.22,0.14,0.41,0.33,0.56,0.57,0.16,0.24,0.24,0.55,0.24,0.92,0,0.31-0.06,0.59-0.18,0.85-0.11,0.26-0.29,0.49-0.52,0.68-0.24,0.19-0.53,0.34-0.87,0.44-0.35,0.11-0.75,0.16-1.2,0.16-0.37,0-0.72-0.05-1.07-0.14-0.34-0.09-0.65-0.23-0.91-0.42-0.27-0.2-0.48-0.44-0.63-0.74-0.16-0.3-0.23-0.65-0.23-1.07h1.42c0,0.23,0.04,0.42,0.13,0.57z" />
        <path
           id="path148"
           d="M547.17,107.87l2.49,6.66h-1.52l-0.5-1.48h-2.49l-0.53,1.48h-1.47l2.52-6.66h1.5zm0.09,4.08l-0.84-2.44h-0.02l-0.87,2.44h1.73z" />
      </g>
      <g
         id="g150"
         enable-background="new    "
         fill="#FFF">
        <path
           id="path152"
           d="M512.83,107.87l2.78,4.47h0.02v-4.47h1.38v6.66h-1.47l-2.77-4.46h-0.02v4.46h-1.38v-6.66h1.46z" />
        <path
           id="path154"
           d="M522.57,109.64c-0.09-0.14-0.2-0.26-0.33-0.37-0.13-0.1-0.28-0.19-0.44-0.24-0.17-0.06-0.34-0.09-0.52-0.09-0.33,0-0.61,0.06-0.84,0.19s-0.42,0.3-0.56,0.51c-0.14,0.22-0.25,0.46-0.31,0.73-0.07,0.28-0.1,0.56-0.1,0.85,0,0.28,0.03,0.56,0.1,0.82,0.06,0.26,0.17,0.5,0.31,0.71s0.33,0.38,0.56,0.51,0.51,0.19,0.84,0.19c0.45,0,0.8-0.13,1.05-0.41,0.25-0.27,0.41-0.63,0.46-1.08h1.42c-0.04,0.42-0.13,0.79-0.29,1.13-0.15,0.34-0.36,0.62-0.61,0.86-0.26,0.24-0.56,0.42-0.9,0.54-0.34,0.13-0.72,0.19-1.13,0.19-0.51,0-0.97-0.09-1.38-0.27-0.4-0.17-0.75-0.42-1.03-0.73s-0.5-0.68-0.64-1.1c-0.15-0.42-0.23-0.87-0.23-1.36s0.08-0.96,0.23-1.38c0.14-0.43,0.36-0.8,0.64-1.12s0.63-0.57,1.03-0.75c0.41-0.18,0.87-0.27,1.38-0.27,0.37,0,0.71,0.06,1.04,0.16,0.33,0.11,0.62,0.26,0.88,0.47,0.26,0.2,0.47,0.45,0.64,0.75s0.27,0.64,0.32,1.02h-1.42c-0.03-0.16-0.08-0.32-0.17-0.46z" />
      </g>
      <g
         id="g6332_1_"
         transform="matrix(0.624995,0,0,0.624995,152.2987,316.9328)">
        <path
           id="path6334_1_"
           d="M644.58-363.12c0,9.42-7.62,17.05-17.03,17.06-9.42,0-17.05-7.62-17.06-17.03v-0.03c0-9.41,7.62-17.04,17.03-17.05s17.05,7.62,17.06,17.03v0.02z"
           rx="29.209877"
           ry="29.209877"
           cy="252.08646"
           cx="475.97119"
           type="arc"
           fill="#FFF" />
        <g
           id="g6336_1_"
           transform="translate(-23.9521,-89.72962)">
          <path
             id="path6338_1_"
             d="M651.36-292.06c-5.17,0-9.55,1.81-13.13,5.42-3.67,3.73-5.51,8.15-5.51,13.25,0,5.11,1.84,9.49,5.51,13.17,3.68,3.67,8.06,5.5,13.13,5.5,5.15,0,9.6-1.85,13.37-5.55,3.55-3.52,5.33-7.89,5.33-13.12,0-5.22-1.81-9.64-5.42-13.25-3.62-3.61-8.04-5.42-13.28-5.42zm0.05,3.36c4.24,0,7.84,1.5,10.8,4.49,2.99,2.95,4.48,6.56,4.48,10.82,0,4.3-1.46,7.86-4.39,10.69-3.08,3.05-6.72,4.58-10.89,4.58s-7.77-1.51-10.79-4.53c-3.03-3.02-4.54-6.6-4.54-10.74s1.53-7.74,4.58-10.82c2.93-2.99,6.51-4.49,10.75-4.49z" />
          <path
             id="path6340_1_"
             d="M643.09-276.02c0.74-4.7,4.05-7.21,8.19-7.21,5.96,0,9.6,4.33,9.6,10.09,0,5.63-3.87,10-9.69,10-4,0-7.59-2.46-8.24-7.3h4.7c0.14,2.51,1.77,3.4,4.1,3.4,2.65,0,4.38-2.47,4.38-6.24,0-3.95-1.49-6.04-4.29-6.04-2.05,0-3.81,0.74-4.19,3.3l1.37-0.01-3.7,3.7-3.7-3.7,1.47,0.01z" />
        </g>
      </g>
      <g
         id="g6361_1_"
         transform="matrix(1.146822,0,0,1.146822,-85.92464,166.153)">
        <path
           id="path6363_1_"
           d="M536.24-66.415c0,5.229-4.23,9.468-9.46,9.473-5.23,0.003-9.47-4.231-9.47-9.459v-0.014c-0.01-5.227,4.23-9.467,9.45-9.472,5.23-0.003,9.47,4.232,9.48,9.459v0.013z"
           rx="29.209877"
           ry="29.209877"
           cy="252.08646"
           cx="475.97119"
           type="arc"
           fill="#FFF" />
        <path
           id="path6365_1_"
           d="M526.76-76.59c2.85,0,5.26,0.984,7.23,2.951s2.96,4.376,2.96,7.224c0,2.849-0.97,5.232-2.91,7.149-2.05,2.018-4.48,3.026-7.28,3.026-2.77,0-5.16-1-7.16-3.001s-3-4.392-3-7.174c0-2.781,1-5.189,3-7.224,1.95-1.967,4.34-2.951,7.16-2.951zm-7.87,7.442c-0.31,0.858-0.46,1.769-0.46,2.733,0,2.256,0.82,4.206,2.47,5.851s3.61,2.467,5.88,2.467c2.28,0,4.26-0.83,5.94-2.493,0.56-0.543,1.02-1.136,1.39-1.779l-3.84-1.709c-0.26,1.291-1.41,2.163-2.8,2.265v1.569h-1.17v-1.569c-1.14-0.013-2.24-0.48-3.08-1.218l1.4-1.413c0.67,0.635,1.35,0.92,2.27,0.92,0.6,0,1.26-0.233,1.26-1.012,0-0.275-0.11-0.467-0.28-0.611l-0.97-0.432-1.21-0.538c-0.59-0.266-1.1-0.49-1.61-0.717l-5.19-2.314zm7.89-5.61c-2.31,0-4.26,0.814-5.85,2.442-0.44,0.438-0.82,0.897-1.14,1.375l3.89,1.731c0.35-1.079,1.38-1.733,2.62-1.806v-1.569h1.17v1.569c0.81,0.039,1.69,0.259,2.56,0.933l-1.34,1.374c-0.49-0.35-1.11-0.596-1.74-0.596-0.5,0-1.22,0.155-1.22,0.79,0,0.097,0.04,0.183,0.09,0.258l1.31,0.58,0.88,0.392c0.56,0.251,1.1,0.49,1.63,0.727l5.21,2.322c0.18-0.683,0.26-1.41,0.26-2.179,0-2.324-0.81-4.29-2.44-5.901-1.62-1.628-3.58-2.442-5.89-2.442z" />
      </g>
    </g>
    <g
       id="cc-by-nc-nd"
       transform="matrix(0.9937728,0,0,0.9936696,-277.1198,624)">
      <path
         id="path3817_4_"
         fill="#AAA"
         d="M443.29,0.44873l114.06,0.20312c1.6,0,3.02-0.23682,3.02,3.1802l-0.14,37.567h-119.82v-37.707c0-1.6846,0.16-3.2437,2.88-3.2437z"
         nodetypes="ccccccc" />
      <path
         id="path364"
         d="M558.35,0h-116.23c-1.25,0-2.26,1.0146-2.26,2.2612v39.496c0,0.282,0.23,0.511,0.51,0.511h119.73c0.28,0,0.51-0.229,0.51-0.511v-39.496c0-1.2466-1.01-2.2612-2.26-2.2612zm-116.23,1.0215h116.23c0.68,0,1.24,0.5561,1.24,1.2397v27.388h-83.07c-3.05,5.505-8.92,9.244-15.65,9.244s-12.6-3.735-15.64-9.244h-4.35v-27.388c0-0.6836,0.56-1.2397,1.24-1.2397z" />
      <g
         id="g5908_4_"
         transform="matrix(0.872921,0,0,0.872921,50.12536,143.2144)">
        <path
           id="path5906_4_"
           d="M486.27-141.53c0,8.68-7.03,15.72-15.71,15.73-8.68,0-15.72-7.03-15.73-15.71v-0.02c0-8.68,7.03-15.72,15.71-15.73,8.68,0,15.72,7.03,15.73,15.71v0.02z"
           rx="22.939548"
           ry="22.939548"
           cy="264.3577"
           cx="296.35416"
           type="arc"
           fill="#FFF" />
        <g
           id="g5706_4_"
           transform="translate(-289.6157,99.0653)">
          <path
             id="path5708_4_"
             d="M772.94-253.4c3.49,3.49,5.23,7.76,5.23,12.8,0,5.05-1.71,9.28-5.14,12.67-3.63,3.58-7.93,5.37-12.89,5.37-4.9,0-9.12-1.78-12.66-5.32-3.55-3.55-5.32-7.79-5.32-12.72,0-4.92,1.77-9.19,5.32-12.8,3.45-3.49,7.67-5.23,12.66-5.23,5.05,0,9.32,1.74,12.8,5.23zm-23.12,2.35c-2.94,2.97-4.42,6.46-4.42,10.46s1.46,7.45,4.38,10.37,6.39,4.37,10.42,4.37c4.02,0,7.53-1.47,10.5-4.41,2.83-2.74,4.24-6.18,4.24-10.33,0-4.12-1.43-7.61-4.31-10.49-2.87-2.87-6.35-4.3-10.43-4.3-4.09,0-7.55,1.44-10.38,4.33zm7.76,8.7c-0.45-0.98-1.13-1.47-2.02-1.47-1.59,0-2.39,1.07-2.39,3.21s0.8,3.2,2.39,3.2c1.04,0,1.79-0.52,2.24-1.56l2.21,1.17c-1.05,1.87-2.63,2.8-4.73,2.8-1.62,0-2.92-0.49-3.89-1.49-0.98-0.99-1.46-2.36-1.46-4.11,0-1.71,0.5-3.07,1.5-4.08,1.01-1.01,2.26-1.51,3.76-1.51,2.22,0,3.81,0.87,4.77,2.62l-2.38,1.22zm10.36,0c-0.45-0.98-1.11-1.47-1.98-1.47-1.62,0-2.43,1.07-2.43,3.21s0.81,3.2,2.43,3.2c1.05,0,1.79-0.52,2.21-1.56l2.25,1.17c-1.05,1.87-2.62,2.8-4.72,2.8-1.62,0-2.91-0.49-3.89-1.49-0.97-0.99-1.46-2.36-1.46-4.11,0-1.71,0.5-3.07,1.49-4.08s2.24-1.51,3.77-1.51c2.22,0,3.81,0.87,4.76,2.62l-2.43,1.22z" />
        </g>
      </g>
      <g
         id="g370"
         enable-background="new    "
         fill="#FFF">
        <path
           id="path372"
           d="M488.25,32.956c0.32,0,0.61,0.028,0.87,0.084,0.27,0.056,0.49,0.147,0.68,0.275,0.18,0.127,0.33,0.297,0.43,0.508,0.1,0.212,0.16,0.473,0.16,0.784,0,0.336-0.08,0.616-0.23,0.839-0.16,0.225-0.38,0.408-0.68,0.551,0.41,0.118,0.72,0.325,0.92,0.621s0.31,0.652,0.31,1.069c0,0.336-0.07,0.627-0.2,0.874-0.13,0.245-0.31,0.446-0.53,0.601-0.22,0.156-0.47,0.272-0.76,0.346-0.28,0.075-0.57,0.112-0.87,0.112h-3.24v-6.664h3.14zm-0.18,2.695c0.26,0,0.47-0.062,0.64-0.186s0.25-0.325,0.25-0.605c0-0.155-0.02-0.283-0.08-0.381-0.06-0.1-0.13-0.177-0.23-0.234-0.09-0.056-0.2-0.095-0.32-0.116-0.12-0.022-0.25-0.032-0.38-0.032h-1.37v1.554h1.49zm0.08,2.828c0.15,0,0.28-0.013,0.41-0.041,0.13-0.029,0.25-0.076,0.35-0.14,0.1-0.066,0.18-0.154,0.24-0.267,0.06-0.111,0.09-0.255,0.09-0.428,0-0.342-0.1-0.586-0.29-0.733-0.2-0.145-0.45-0.219-0.77-0.219h-1.6v1.828h1.57z" />
        <path
           id="path374"
           d="M490.96,32.956h1.65l1.56,2.632,1.55-2.632h1.63l-2.47,4.106v2.558h-1.47v-2.595l-2.45-4.069z" />
      </g>
      <g
         id="g376"
         enable-background="new    "
         fill="#FFF">
        <path
           id="path378"
           d="M512.83,32.956l2.78,4.471h0.02v-4.471h1.38v6.664h-1.47l-2.77-4.462h-0.02v4.462h-1.38v-6.664h1.46z" />
        <path
           id="path380"
           d="M522.57,34.731c-0.09-0.14-0.2-0.263-0.33-0.369-0.13-0.105-0.28-0.188-0.44-0.247-0.17-0.059-0.34-0.089-0.52-0.089-0.33,0-0.61,0.064-0.84,0.192-0.23,0.127-0.42,0.298-0.56,0.512-0.14,0.215-0.25,0.459-0.31,0.733-0.07,0.273-0.1,0.557-0.1,0.849,0,0.28,0.03,0.552,0.1,0.816,0.06,0.265,0.17,0.503,0.31,0.714,0.14,0.212,0.33,0.381,0.56,0.509s0.51,0.191,0.84,0.191c0.45,0,0.8-0.137,1.05-0.411s0.41-0.635,0.46-1.083h1.42c-0.04,0.417-0.13,0.794-0.29,1.13-0.15,0.337-0.36,0.623-0.61,0.86-0.26,0.237-0.56,0.418-0.9,0.543s-0.72,0.188-1.13,0.188c-0.51,0-0.97-0.089-1.38-0.267-0.4-0.177-0.75-0.422-1.03-0.732-0.28-0.312-0.5-0.678-0.64-1.098-0.15-0.421-0.23-0.873-0.23-1.359,0-0.499,0.08-0.96,0.23-1.387,0.14-0.427,0.36-0.799,0.64-1.116,0.28-0.318,0.63-0.567,1.03-0.747,0.41-0.181,0.87-0.271,1.38-0.271,0.37,0,0.71,0.053,1.04,0.159s0.62,0.26,0.88,0.463c0.26,0.202,0.47,0.453,0.64,0.752s0.27,0.642,0.32,1.027h-1.42c-0.03-0.168-0.08-0.322-0.17-0.462z" />
      </g>
      <g
         id="g382"
         enable-background="new    "
         fill="#FFF">
        <path
           id="path384"
           d="M538.83,32.956l2.78,4.471h0.02v-4.471h1.38v6.664h-1.47l-2.77-4.462h-0.02v4.462h-1.38v-6.664h1.46z" />
        <path
           id="path386"
           d="M547.17,32.956c0.43,0,0.83,0.068,1.2,0.205s0.69,0.343,0.96,0.616c0.27,0.274,0.48,0.617,0.64,1.027,0.15,0.411,0.23,0.893,0.23,1.447,0,0.485-0.07,0.933-0.19,1.344-0.13,0.41-0.31,0.765-0.57,1.063-0.25,0.299-0.56,0.534-0.94,0.705s-0.82,0.257-1.33,0.257h-2.88v-6.664h2.88zm-0.11,5.43c0.22,0,0.42-0.034,0.62-0.103,0.2-0.068,0.38-0.181,0.53-0.341,0.16-0.158,0.28-0.364,0.38-0.619,0.09-0.255,0.14-0.566,0.14-0.932,0-0.336-0.04-0.639-0.1-0.91-0.07-0.27-0.17-0.502-0.32-0.694s-0.35-0.341-0.6-0.443c-0.24-0.103-0.55-0.154-0.91-0.154h-1.04v4.196h1.3z" />
      </g>
      <g
         id="g6370_1_"
         transform="translate(286.1464,208.0498)">
        <g
           id="g7610_1_"
           transform="matrix(1.146822,0,0,1.146822,-67.14005,-41.89676)">
          <path
             id="path6372_1_"
             d="M269.62-131.73c0,4.82-3.91,8.74-8.74,8.74-4.82,0-8.74-3.91-8.74-8.73v-0.01c0-4.83,3.91-8.75,8.73-8.75,4.83,0,8.74,3.91,8.75,8.73v0.02z"
             rx="29.209877"
             ry="29.209877"
             cy="252.08646"
             cx="475.97119"
             type="arc"
             fill="#FFF" />
          <path
             id="path6374_1_"
             d="M260.87-141.91c2.85,0,5.26,0.98,7.23,2.95s2.95,4.38,2.95,7.23c0,2.84-0.96,5.23-2.9,7.14-2.05,2.02-4.48,3.03-7.28,3.03-2.77,0-5.16-1-7.16-3s-3.01-4.39-3.01-7.17c0-2.79,1.01-5.19,3.01-7.23,1.95-1.97,4.34-2.95,7.16-2.95zm-7.88,7.44c-0.3,0.86-0.45,1.77-0.45,2.74,0,2.25,0.82,4.2,2.47,5.85,1.65,1.64,3.61,2.46,5.88,2.46,2.28,0,4.25-0.83,5.94-2.49,0.56-0.54,1.02-1.14,1.39-1.78l-3.84-1.71c-0.26,1.29-1.41,2.16-2.8,2.27v1.57h-1.17v-1.57c-1.14-0.02-2.24-0.48-3.09-1.22l1.4-1.41c0.68,0.63,1.35,0.92,2.28,0.92,0.59,0,1.25-0.24,1.25-1.02,0-0.27-0.1-0.46-0.27-0.61l-0.97-0.43-1.21-0.54c-0.6-0.26-1.1-0.49-1.61-0.71l-5.2-2.32zm7.9-5.61c-2.31,0-4.26,0.82-5.86,2.44-0.43,0.44-0.81,0.9-1.13,1.38l3.89,1.73c0.35-1.08,1.38-1.73,2.62-1.81v-1.57h1.17v1.57c0.8,0.04,1.69,0.26,2.56,0.94l-1.34,1.37c-0.49-0.35-1.12-0.6-1.74-0.6-0.51,0-1.22,0.16-1.22,0.8,0,0.09,0.03,0.18,0.09,0.25l1.3,0.58,0.88,0.39c0.57,0.26,1.1,0.49,1.64,0.73l5.21,2.32c0.17-0.68,0.26-1.41,0.26-2.17,0-2.33-0.82-4.3-2.45-5.91-1.61-1.62-3.57-2.44-5.88-2.44z" />
        </g>
      </g>
      <g
         id="g6394_1_"
         transform="matrix(0.624995,0,0,0.624995,312.8511,316.9328)">
        <path
           id="path6396_1_"
           d="M387.83-482.97c0.01,9.41-7.61,17.04-17.02,17.05-9.42,0.01-17.05-7.62-17.06-17.03v-0.02c-0.01-9.42,7.62-17.05,17.03-17.06s17.05,7.62,17.05,17.03v0.03z"
           rx="29.209877"
           ry="29.209877"
           cy="252.08646"
           cx="475.97119"
           type="arc"
           fill="#FFF" />
        <g
           id="g6398_1_"
           transform="translate(-23.9521,-87.92102)">
          <path
             id="path6400_1_"
             d="M394.48-413.72c-5.17,0-9.55,1.8-13.13,5.41-3.68,3.73-5.52,8.15-5.52,13.26,0,5.1,1.84,9.49,5.52,13.16,3.67,3.67,8.05,5.51,13.13,5.51,5.14,0,9.59-1.86,13.36-5.56,3.55-3.51,5.33-7.89,5.33-13.11,0-5.23-1.81-9.65-5.42-13.26s-8.04-5.41-13.27-5.41zm0.04,3.36c4.24,0,7.84,1.49,10.8,4.48,2.99,2.95,4.49,6.56,4.49,10.83,0,4.29-1.47,7.85-4.4,10.68-3.08,3.05-6.71,4.58-10.89,4.58-4.17,0-7.77-1.51-10.79-4.53s-4.53-6.6-4.53-10.73c0-4.14,1.52-7.75,4.58-10.83,2.92-2.99,6.51-4.48,10.74-4.48z" />
          <g
             id="g6402_1_">
            <path
               id="path6404_1_"
               d="M401.56-399.48h-13.58v3.22h13.58v-3.22zm0,6h-13.58v3.22h13.58v-3.22z" />
          </g>
        </g>
      </g>
      <g
         id="g398">
        <circle
           id="circle400"
           cx="491.95"
           cy="15.314"
           r="10.806"
           fill="#FFF" />
        <g
           id="g402">
          <path
             id="path404"
             d="M495.07,12.187c0-0.416-0.33-0.753-0.75-0.753h-4.77c-0.42,0-0.76,0.336-0.76,0.753v4.773h1.34v5.652h3.61v-5.652h1.33v-4.773z" />
          <circle
             id="circle406"
             cx="491.93"
             cy="9.1724"
             r="1.6323" />
        </g>
        <path
           id="path408"
           fill-rule="evenodd"
           clip-rule="evenodd"
           d="M491.92,3.4077c-3.23,0-5.97,1.1275-8.21,3.3838-2.3,2.333-3.44,5.0955-3.44,8.2845s1.14,5.932,3.44,8.227c2.3,2.294,5.04,3.442,8.21,3.442,3.21,0,6-1.157,8.35-3.472,2.22-2.197,3.33-4.93,3.33-8.197,0-3.268-1.13-6.0286-3.38-8.2845-2.26-2.2563-5.03-3.3838-8.3-3.3838zm0.03,2.0996c2.65,0,4.9,0.9336,6.75,2.8008,1.87,1.8469,2.8,4.1039,2.8,6.7679,0,2.683-0.91,4.911-2.75,6.68-1.92,1.906-4.19,2.859-6.8,2.859s-4.86-0.943-6.75-2.829c-1.89-1.887-2.83-4.123-2.83-6.71s0.95-4.843,2.86-6.7679c1.83-1.8672,4.07-2.8008,6.72-2.8008z" />
      </g>
    </g>
    <g
       id="cc-by-sa"
       transform="translate(160,688)">
      <g
         id="g287"
         transform="matrix(0.9937807,0,0,0.9936694,-177.69409,-74.436409)">
        <path
           id="path3817_2_"
           fill="#AAA"
           d="M182.24,75.39l114.06,0.203c1.59,0,3.02-0.237,3.02,3.18l-0.14,37.567h-119.82v-37.706c0-1.685,0.16-3.244,2.88-3.244z"
           nodetypes="ccccccc" />
        <g
           id="g5908_2_"
           transform="matrix(0.872921,0,0,0.872921,50.12536,143.2144)">
          <path
             id="path5906_2_"
             d="M187.21-55.679c0.01,8.68-7.03,15.721-15.71,15.727-8.68,0.005-15.72-7.028-15.73-15.708v-0.019c0-8.682,7.03-15.722,15.71-15.727,8.68-0.006,15.72,7.028,15.73,15.708v0.019z"
             rx="22.939548"
             ry="22.939548"
             cy="264.3577"
             cx="296.35416"
             type="arc"
             fill="#FFF" />
          <g
             id="g5706_2_"
             transform="translate(-289.6157,99.0653)">
            <path
               id="path5708_2_"
               d="M473.88-167.55c3.49,3.49,5.23,7.76,5.23,12.81,0,5.04-1.71,9.27-5.14,12.66-3.63,3.58-7.93,5.37-12.88,5.37-4.9,0-9.12-1.78-12.67-5.32-3.55-3.55-5.32-7.79-5.32-12.71,0-4.93,1.77-9.2,5.32-12.81,3.46-3.48,7.68-5.23,12.67-5.23,5.04,0,9.31,1.75,12.79,5.23zm-23.11,2.35c-2.95,2.97-4.42,6.46-4.42,10.46s1.46,7.46,4.37,10.37c2.92,2.92,6.39,4.38,10.42,4.38s7.53-1.48,10.5-4.42c2.83-2.74,4.24-6.18,4.24-10.33,0-4.12-1.43-7.61-4.3-10.48-2.87-2.88-6.35-4.31-10.44-4.31s-7.55,1.44-10.37,4.33zm7.75,8.7c-0.45-0.98-1.12-1.47-2.02-1.47-1.59,0-2.39,1.07-2.39,3.21s0.8,3.21,2.39,3.21c1.05,0,1.8-0.53,2.25-1.57l2.2,1.17c-1.05,1.87-2.63,2.8-4.73,2.8-1.62,0-2.91-0.49-3.89-1.49-0.97-0.99-1.46-2.36-1.46-4.1,0-1.72,0.5-3.08,1.51-4.09,1-1.01,2.25-1.51,3.75-1.51,2.22,0,3.81,0.87,4.78,2.62l-2.39,1.22zm10.36,0c-0.45-0.98-1.11-1.47-1.98-1.47-1.62,0-2.43,1.07-2.43,3.21s0.81,3.21,2.43,3.21c1.05,0,1.79-0.53,2.21-1.57l2.25,1.17c-1.05,1.87-2.62,2.8-4.72,2.8-1.61,0-2.91-0.49-3.88-1.49-0.98-0.99-1.46-2.36-1.46-4.1,0-1.72,0.49-3.08,1.48-4.09s2.25-1.51,3.77-1.51c2.22,0,3.81,0.87,4.77,2.62l-2.44,1.22z" />
          </g>
        </g>
        <path
           id="path294"
           d="M297.3,74.911h-116.23c-1.25,0-2.26,1.014-2.26,2.261v39.498c0,0.28,0.22,0.51,0.51,0.51h119.73c0.28,0,0.51-0.23,0.51-0.51v-39.498c0-1.247-1.02-2.261-2.26-2.261zm-116.23,1.021h116.23c0.68,0,1.24,0.556,1.24,1.24v27.418h-83.08c-3.04,5.51-8.91,9.24-15.64,9.24-6.74,0-12.6-3.73-15.65-9.24h-4.34v-27.418c0-0.684,0.55-1.24,1.24-1.24z" />
        <g
           id="g296"
           enable-background="new    "
           fill="#FFF">
          <path
             id="path298"
             d="M265.61,112.88c0.08,0.16,0.19,0.29,0.32,0.38,0.13,0.1,0.29,0.17,0.47,0.22,0.18,0.04,0.37,0.07,0.56,0.07,0.13,0,0.27-0.01,0.42-0.04,0.15-0.02,0.29-0.06,0.42-0.12s0.24-0.15,0.32-0.26c0.09-0.11,0.13-0.25,0.13-0.41,0-0.18-0.05-0.33-0.17-0.44-0.11-0.12-0.26-0.21-0.45-0.28-0.19-0.08-0.4-0.14-0.63-0.2-0.24-0.06-0.48-0.12-0.72-0.19-0.25-0.06-0.49-0.13-0.73-0.22-0.23-0.09-0.45-0.21-0.63-0.35-0.19-0.15-0.34-0.33-0.45-0.54-0.12-0.22-0.18-0.48-0.18-0.78,0-0.34,0.08-0.64,0.22-0.89,0.15-0.25,0.34-0.46,0.58-0.63,0.23-0.17,0.5-0.3,0.8-0.38s0.59-0.12,0.89-0.12c0.35,0,0.69,0.04,1.01,0.12,0.31,0.08,0.6,0.2,0.85,0.38,0.25,0.17,0.44,0.4,0.59,0.67s0.22,0.6,0.22,0.98h-1.42c-0.01-0.2-0.06-0.36-0.13-0.49s-0.16-0.24-0.28-0.31c-0.12-0.08-0.25-0.13-0.4-0.16-0.16-0.03-0.32-0.05-0.5-0.05-0.12,0-0.24,0.02-0.35,0.04-0.12,0.03-0.23,0.07-0.32,0.13-0.1,0.06-0.18,0.14-0.24,0.23-0.06,0.1-0.09,0.22-0.09,0.36,0,0.13,0.02,0.24,0.07,0.32s0.15,0.15,0.29,0.22c0.15,0.07,0.35,0.14,0.61,0.21s0.59,0.15,1.01,0.26c0.12,0.02,0.3,0.07,0.52,0.13,0.22,0.07,0.44,0.17,0.65,0.32,0.22,0.14,0.41,0.33,0.57,0.57s0.24,0.55,0.24,0.92c0,0.31-0.06,0.59-0.18,0.85s-0.3,0.49-0.53,0.68-0.52,0.33-0.87,0.44c-0.34,0.11-0.74,0.16-1.2,0.16-0.36,0-0.72-0.05-1.06-0.14-0.35-0.09-0.65-0.23-0.92-0.42-0.26-0.2-0.47-0.44-0.63-0.74-0.15-0.3-0.23-0.65-0.22-1.07h1.42c0,0.23,0.04,0.42,0.12,0.57z" />
          <path
             id="path300"
             d="M273.87,107.87l2.49,6.66h-1.52l-0.51-1.48h-2.49l-0.52,1.48h-1.48l2.52-6.66h1.51zm0.08,4.08l-0.84-2.44h-0.02l-0.87,2.44h1.73z" />
        </g>
        <g
           id="g302"
           enable-background="new    "
           fill="#FFF">
          <path
             id="path304"
             d="M239.18,107.87c0.32,0,0.61,0.03,0.87,0.08,0.26,0.06,0.48,0.15,0.67,0.28,0.19,0.12,0.33,0.29,0.44,0.5,0.1,0.22,0.15,0.48,0.15,0.79,0,0.33-0.08,0.61-0.23,0.84-0.15,0.22-0.38,0.4-0.68,0.55,0.41,0.12,0.72,0.32,0.93,0.62,0.2,0.29,0.3,0.65,0.3,1.07,0,0.33-0.07,0.63-0.2,0.87-0.13,0.25-0.3,0.45-0.52,0.6-0.23,0.16-0.48,0.27-0.76,0.35-0.29,0.07-0.58,0.11-0.88,0.11h-3.23v-6.66h3.14zm-0.19,2.69c0.26,0,0.48-0.06,0.65-0.18,0.16-0.13,0.25-0.33,0.25-0.61,0-0.15-0.03-0.28-0.09-0.38-0.05-0.1-0.13-0.18-0.22-0.23-0.09-0.06-0.2-0.1-0.32-0.12s-0.25-0.03-0.38-0.03h-1.37v1.55h1.48zm0.09,2.83c0.14,0,0.28-0.01,0.41-0.04s0.24-0.08,0.34-0.14c0.1-0.07,0.18-0.16,0.24-0.27s0.09-0.25,0.09-0.43c0-0.34-0.1-0.58-0.29-0.73-0.19-0.14-0.45-0.22-0.77-0.22h-1.59v1.83h1.57z" />
          <path
             id="path306"
             d="M241.89,107.87h1.64l1.56,2.63,1.55-2.63h1.64l-2.48,4.1v2.56h-1.46v-2.59l-2.45-4.07z" />
        </g>
        <g
           id="g6316_1_"
           transform="matrix(0.624995,0,0,0.624995,391.2294,176.9332)">
          <path
             id="path6318_1_"
             d="M-175.01-139.12c0.01,9.42-7.62,17.05-17.03,17.06s-17.05-7.62-17.05-17.03v-0.03c-0.01-9.41,7.62-17.04,17.03-17.05s17.05,7.62,17.05,17.03v0.02z"
             rx="29.209877"
             ry="29.209877"
             cy="252.08646"
             cx="475.97119"
             type="arc"
             fill="#FFF" />
          <g
             id="g6320_1_"
             transform="translate(-23.9521,-89.72962)">
            <path
               id="path6322_1_"
               d="M-168.22-68.055c-5.17,0-9.55,1.804-13.13,5.413-3.68,3.734-5.52,8.153-5.52,13.256s1.84,9.492,5.52,13.163c3.67,3.672,8.05,5.508,13.13,5.508,5.14,0,9.59-1.852,13.37-5.555,3.55-3.516,5.32-7.888,5.32-13.116,0-5.226-1.8-9.647-5.42-13.256-3.61-3.609-8.04-5.413-13.27-5.413zm0.05,3.36c4.23,0,7.83,1.493,10.79,4.48,2.99,2.957,4.49,6.566,4.49,10.829,0,4.294-1.46,7.857-4.39,10.689-3.09,3.05-6.72,4.574-10.89,4.574-4.18,0-7.78-1.509-10.8-4.527-3.02-3.019-4.53-6.597-4.53-10.736,0-4.138,1.52-7.748,4.58-10.829,2.93-2.987,6.51-4.48,10.75-4.48z" />
            <path
               id="path6324_1_"
               d="M-176.5-52.021c0.75-4.698,4.06-7.208,8.2-7.208,5.96,0,9.59,4.325,9.59,10.092,0,5.627-3.86,9.999-9.68,9.999-4.01,0-7.59-2.465-8.25-7.301h4.71c0.14,2.511,1.77,3.395,4.1,3.395,2.65,0,4.37-2.465,4.37-6.233,0-3.952-1.49-6.045-4.28-6.045-2.05,0-3.82,0.744-4.19,3.301l1.37-0.007-3.71,3.702-3.7-3.702,1.47,0.007z" />
          </g>
        </g>
        <g
           id="g313">
          <circle
             id="circle315"
             cx="242.56"
             cy="90.225"
             r="10.806"
             fill="#FFF" />
          <g
             id="g317">
            <path
               id="path319"
               d="M245.69,87.098c0-0.417-0.34-0.754-0.75-0.754h-4.78c-0.41,0-0.75,0.337-0.75,0.754v4.773h1.33v5.652h3.62v-5.652h1.33v-4.773z" />
            <circle
               id="circle321"
               cx="242.55"
               cy="84.083"
               r="1.6323" />
          </g>
          <path
             id="path323"
             fill-rule="evenodd"
             clip-rule="evenodd"
             d="M242.53,78.318c-3.23,0-5.96,1.128-8.2,3.384-2.3,2.333-3.45,5.095-3.45,8.284s1.15,5.932,3.45,8.227c2.29,2.297,5.03,3.447,8.2,3.447,3.22,0,6-1.16,8.36-3.476,2.22-2.197,3.33-4.93,3.33-8.198,0-3.267-1.13-6.028-3.39-8.284s-5.02-3.384-8.3-3.384zm0.03,2.1c2.65,0,4.9,0.934,6.75,2.801,1.87,1.847,2.81,4.103,2.81,6.767,0,2.684-0.92,4.911-2.75,6.681-1.93,1.906-4.2,2.858-6.81,2.858s-4.85-0.942-6.74-2.829c-1.89-1.886-2.84-4.123-2.84-6.71,0-2.586,0.96-4.842,2.87-6.767,1.83-1.867,4.07-2.801,6.71-2.801z" />
        </g>
      </g>
    </g>
    <g
       id="subtitlebackground"
       fill="url(#linearGradient3795)">
      <rect
         id="rect2820"
         height="32"
         width="240"
         y="960"
         x="320"
         fill="url(#linearGradient3797)" />
    </g>
    <rect
       id="rect3865"
       width="16"
       height="16"
       x="-2"
       y="936"
       style="fill:none" />
  </g>
</svg>
